<svg width="220" height="17" viewBox="0 0 220 17" fill="none" xmlns="http://www.w3.org/2000/svg">
<path d="M4.16327 17C3.01931 17 2.03475 16.6616 1.2096 15.9847C0.4032 15.2921 0 14.4657 0 13.5056V11.9236H4.36019V13.3167H15.8373V10.3417H4.16327C3.01931 10.3417 2.03475 10.0032 1.2096 9.32639C0.4032 8.6338 0 7.80741 0 6.84722V3.49444C0 2.53426 0.4032 1.71574 1.2096 1.03889C2.03475 0.346296 3.01931 0 4.16327 0H16.0905C17.2157 0 18.1909 0.346296 19.016 1.03889C19.8412 1.71574 20.2538 2.72315 20.2538 3.68333H4.36019V6.65833H16.0905C17.2157 6.65833 18.1909 7.00463 19.016 7.69722C19.8412 8.37407 20.2538 9.19259 20.2538 10.1528V13.5056C20.2538 14.4657 19.8412 15.2921 19.016 15.9847C18.1909 16.6616 17.2157 17 16.0905 17H4.16327Z" fill="black"/>
<path d="M26.9981 3.68333V0.0236108H43.0605C44.2044 0.0236108 45.189 0.369907 46.0142 1.0625C46.8393 1.75509 47.2519 2.57361 47.2519 3.51806V7.90972C47.2519 8.85417 46.8393 9.67269 46.0142 10.3653C45.189 11.0579 44.2044 11.4042 43.0605 11.4042L31.3583 11.4278V17H26.9981V7.72083H42.8354V3.68333H26.9981Z" fill="black"/>
<path d="M52.9523 7.83889V17H57.3125V11.5222H68.7897V17H73.2061V3.49444C73.2061 2.53426 72.7935 1.71574 71.9684 1.03889C71.1432 0.346296 70.1587 0 69.0147 0H57.1156C55.9717 0 54.9871 0.346296 54.1619 1.03889C53.3555 1.71574 52.9523 2.53426 52.9523 3.49444V3.68333H68.7897V7.83889H52.9523Z" fill="black"/>
<path d="M84.221 17C83.077 17 82.0925 16.6616 81.2673 15.9847C80.4609 15.2921 80.0577 14.4657 80.0577 13.5056V3.49444C80.0577 2.53426 80.4609 1.71574 81.2673 1.03889C82.0925 0.346296 83.077 0 84.221 0H100.255V3.68333H84.4179V13.3167H100.255V17H84.221Z" fill="black"/>
<path d="M106.891 6.65833V17H125.598V13.3167H111.307V10.3417H122.813V6.65833H111.307H106.891Z" fill="black"/>
<path d="M106.891 3.68333H111.307H125.598V0H106.891V3.68333Z" fill="black"/>
<path d="M135.088 6.94167V3.30556H139.392V6.94167H135.088Z" fill="black"/>
<path d="M135.088 13.5021V9.88956H139.392V13.5021H135.088Z" fill="black"/>
<path d="M148.034 0V17H152.394V5.61944L163.787 17H168.288V0H163.871V11.3333L152.535 0H148.034Z" fill="black"/>
<path d="M175.142 17V0H193.849V3.68333H179.558V6.65833H191.064V10.3417H179.558V13.3167H193.849V17H175.142Z" fill="black"/>
<path fill-rule="evenodd" clip-rule="evenodd" d="M200.956 15.9847C201.781 16.6616 202.766 17 203.91 17H215.837C216.962 17 217.937 16.6616 218.762 15.9847C219.587 15.2921 220 14.4657 220 13.5056V3.49444C220 2.53426 219.587 1.71574 218.762 1.03889C217.937 0.346296 216.962 0 215.837 0H203.91C202.766 0 201.781 0.346296 200.956 1.03889C200.149 1.71574 199.746 2.53426 199.746 3.49444V13.5056C199.746 14.4657 200.149 15.2921 200.956 15.9847ZM204.106 13.3167V3.68333H215.584V13.3167H204.106Z" fill="black"/>
</svg>
